@startuml a
skinparam classAttributeIconSize 0
class ライントレーサー {

}

class 光センサー {
 
}

class 右モータ {

}

class 左モータ {

}

class CPU {
 
}

class 電源SW {
}

ライントレーサー "1" *-- "1" 光センサー
ライントレーサー "1" *-- "1" 右モータ
ライントレーサー "1" *-- "1" 左モータ
ライントレーサー "1" *-- "1" CPU
ライントレーサー "1" *-- "1" 電源SW

hide circle

@enduml
